<?xml version="1.0" encoding="UTF-8"?>
<svg width="32" height="32" viewBox="0 0 32 32" fill="none" xmlns="http://www.w3.org/2000/svg">
    <style>
        path { fill: #000000; }
        @media (prefers-color-scheme: dark) {
            path { fill: #ffffff; }
        }
    </style>
    <path fill-rule="evenodd" clip-rule="evenodd" d="M12 8L14 5H18L20 8H26C27.1046 8 28 8.89543 28 10V24C28 25.1046 27.1046 26 26 26H6C4.89543 26 4 25.1046 4 24V10C4 8.89543 4.89543 8 6 8H12ZM16 22C19.3137 22 22 19.3137 22 16C22 12.6863 19.3137 10 16 10C12.6863 10 10 12.6863 10 16C10 19.3137 12.6863 22 16 22ZM16 20C18.2091 20 20 18.2091 20 16C20 13.7909 18.2091 12 16 12C13.7909 12 12 13.7909 12 16C12 18.2091 13.7909 20 16 20Z"/>
</svg> 